<!DOCTYPE svg PUBLIC "-//W3C//DTD SVG 1.1//EN" "http://www.w3.org/Graphics/SVG/1.1/DTD/svg11.dtd">
<!-- Uploaded to: SVG Repo, www.svgrepo.com, Transformed by: SVG Repo Mixer Tools -->
<svg width="800px" height="800px" viewBox="0 0 512 512" id="Layer_1" version="1.1" xml:space="preserve" xmlns="http://www.w3.org/2000/svg" xmlns:xlink="http://www.w3.org/1999/xlink" fill="#000000">
<g id="SVGRepo_bgCarrier" stroke-width="0"/>
<g id="SVGRepo_tracerCarrier" stroke-linecap="round" stroke-linejoin="round"/>
<g id="SVGRepo_iconCarrier"> <style type="text/css"> .st0{fill:#e91802;} .st1{fill:#282828;} .st2{fill:#333333;} </style> <g> <path class="st0" d="M354.5,220.6V57.9c0-7.4-6-13.5-13.5-13.5H110.5c-7.5,0-13.5,6-13.5,13.5v162.7l128.8,95L354.5,220.6z M270.7,100.6h26.4c4.4,0,8,3.6,8,8c0,4.4-3.6,8-8,8h-26.4c-4.4,0-8-3.6-8-8C262.7,104.2,266.3,100.6,270.7,100.6z M270.7,156.3 h26.4c4.4,0,8,3.6,8,8s-3.6,8-8,8h-26.4c-4.4,0-8-3.6-8-8S266.3,156.3,270.7,156.3z M270.7,211.9h26.4c4.4,0,8,3.6,8,8s-3.6,8-8,8 h-26.4c-4.4,0-8-3.6-8-8S266.3,211.9,270.7,211.9z M154.3,100.6h70.9c4.4,0,8,3.6,8,8c0,4.4-3.6,8-8,8h-70.9c-4.4,0-8-3.6-8-8 C146.3,104.2,149.9,100.6,154.3,100.6z M154.3,156.3h70.9c4.4,0,8,3.6,8,8s-3.6,8-8,8h-70.9c-4.4,0-8-3.6-8-8 S149.9,156.3,154.3,156.3z M154.3,227.9c-4.4,0-8-3.6-8-8s3.6-8,8-8h70.9c4.4,0,8,3.6,8,8s-3.6,8-8,8H154.3z"/> <path class="st1" d="M387.5,274.7h21.6v-74.4l-54.6,40.3l-128.8,95L97,240.5l-54.6-40.3v212h290.2v-35.6c0-10,5-18.8,12.6-24.1V317 C345.2,293.7,364.2,274.7,387.5,274.7z"/> <path class="st0" d="M457,363.5V317c0-14.5-11.8-26.3-26.3-26.3h-43.2c-14.5,0-26.3,11.8-26.3,26.3v46.5c-7,0.3-12.6,6.1-12.6,13.3 v77.5c0,7.3,5.9,13.3,13.3,13.3h94.4c7.4,0,13.3-6,13.3-13.3v-77.5C469.6,369.6,464,363.8,457,363.5z M427.3,410.8 c0,0.2,0,0.3,0,0.5c-0.7,6.4-4.7,11.8-10.2,14.5v14c0,4.4-3.6,8-8,8s-8-3.6-8-8v-14c-5.3-2.6-9.1-7.6-10.1-13.6 c0-0.3-0.1-0.6-0.1-0.9c0-0.2,0-0.3,0-0.5c-0.1-0.5-0.1-0.9-0.1-1.4c0-10.1,8.2-18.3,18.3-18.3c10.1,0,18.3,8.2,18.3,18.3 C427.4,409.9,427.4,410.4,427.3,410.8z M441,363.4h-63.7V317c0-5.7,4.6-10.3,10.3-10.3h43.2c5.7,0,10.3,4.6,10.3,10.3V363.4z"/> </g> </g>
</svg>