<!DOCTYPE svg PUBLIC "-//W3C//DTD SVG 1.1//EN" "http://www.w3.org/Graphics/SVG/1.1/DTD/svg11.dtd">
<!-- Uploaded to: SVG Repo, www.svgrepo.com, Transformed by: SVG Repo Mixer Tools -->
<svg width="800px" height="800px" viewBox="0 0 512 512" id="Layer_1" version="1.1" xml:space="preserve" xmlns="http://www.w3.org/2000/svg" xmlns:xlink="http://www.w3.org/1999/xlink" fill="#000000">
<g id="SVGRepo_bgCarrier" stroke-width="0"/>
<g id="SVGRepo_tracerCarrier" stroke-linecap="round" stroke-linejoin="round"/>
<g id="SVGRepo_iconCarrier"> <style type="text/css"> .st0{fill:#e91802;} .st1{fill:#282828;} .st2{fill:#333333;} </style> <g> <path class="st1" d="M337.2,126.4h-34.9c-3.3,0-6,2.3-6.7,5.5c-0.1,0.4-0.1,0.9-0.1,1.3v31.7h48.4v-31.7 C343.9,129.5,340.9,126.4,337.2,126.4z"/> <path class="st1" d="M319.7,193.1c-8.2,0-14.8,6.6-14.8,14.8c0,0.4,0,0.8,0.1,1.1c0,0.1,0,0.3,0,0.4c0,0.3,0.1,0.5,0.1,0.8 c0.7,4.2,3.2,7.8,6.6,10.1v12.2c0,4.4,3.6,8,8,8c4.4,0,8-3.6,8-8v-12.2c3.7-2.4,6.2-6.3,6.7-10.9c0-0.1,0-0.3,0-0.4 c0-0.4,0.1-0.8,0.1-1.1C334.5,199.7,327.9,193.1,319.7,193.1z"/> <path class="st1" d="M454.6,88.7H184.9c-9.3,0-16.9,7.6-16.9,16.9v165.6c0,9.3,7.6,16.9,16.9,16.9h210.6l62.4,56.6 c5.3,4.8,13.7,1,13.7-6.1v-233C471.5,96.2,463.9,88.7,454.6,88.7z M375.4,248.5c0,6.8-5.5,12.2-12.2,12.2h-86.9 c-6.8,0-12.2-5.5-12.2-12.2v-71.4c0-6.8,5.5-12.2,12.2-12.2h3.2v-31.7c0-1.5,0.2-2.9,0.4-4.4c2.1-10.7,11.5-18.4,22.4-18.4h34.9 c12.6,0,22.8,10.2,22.8,22.8v31.7h3.2c6.8,0,12.2,5.5,12.2,12.2V248.5z"/> <path class="st0" d="M152,271.2v-65H54.8c-7.9,0-14.3,6.4-14.3,14.3v194.6c0,7.1,8.4,10.8,13.7,6.1l50.8-46h178.4 c7.9,0,14.3-6.4,14.3-14.3v-56.8H184.9C166.7,304.1,152,289.3,152,271.2z"/> </g> </g>
</svg>