<svg width="98" height="98" viewBox="0 0 98 98" fill="none" xmlns="http://www.w3.org/2000/svg">
<path d="M30.5007 22.3625H15.8007C13.6187 22.3625 11.8481 24.1331 11.8481 26.3151V75.4395C11.8481 77.6215 13.6187 79.392 15.8007 79.392H87.9321C90.1142 79.392 91.8847 77.6215 91.8847 75.4395V26.3151C91.8847 24.1331 90.1142 22.3625 87.9321 22.3625H30.5007Z" fill="#A7B8C6"/>
<path d="M28.0027 20.1742H13.7812C11.6662 20.1742 9.96265 21.8681 9.96265 23.964V71.1074C9.96265 73.2033 11.6757 74.8972 13.7812 74.8972H83.5583C85.6734 74.8972 87.3769 73.2033 87.3769 71.1074V23.964C87.3769 21.8681 85.6638 20.1742 83.5583 20.1742H28.0027Z" fill="#9ED09E"/>
<path d="M35.6207 64.5996C34.6923 65.3843 34.5775 66.7912 35.3623 67.7195C36.147 68.6478 37.5539 68.7627 38.4822 67.9779L86.1519 27.6008V21.8011L35.6207 64.5996ZM52.3591 26.2705C51.5744 25.3422 50.1675 25.2273 49.2392 26.0121L9.96265 59.2785V65.0781L52.1007 29.3904C53.0291 28.5961 53.1439 27.1988 52.3591 26.2705Z" fill="#BBDBBB"/>
<path d="M29.6394 46.3776C29.6394 48.7517 30.107 51.1025 31.0155 53.2959C31.9241 55.4893 33.2557 57.4822 34.9344 59.1609C36.6131 60.8397 38.6061 62.1713 40.7994 63.0798C42.9928 63.9883 45.3436 64.456 47.7177 64.456C50.0918 64.456 52.4426 63.9883 54.636 63.0798C56.8294 62.1713 58.8223 60.8397 60.501 59.1609C62.1798 57.4822 63.5114 55.4893 64.4199 53.2959C65.3284 51.1025 65.796 48.7517 65.796 46.3776C65.796 41.583 63.8914 36.9847 60.501 33.5943C57.1107 30.204 52.5124 28.2993 47.7177 28.2993C42.9231 28.2993 38.3248 30.204 34.9344 33.5943C31.5441 36.9847 29.6394 41.583 29.6394 46.3776Z" fill="white"/>
<path d="M67.6239 48.4927H27.2467C26.8639 48.4927 26.5481 48.1769 26.5481 47.7941V44.9708C26.5481 44.588 26.8639 44.2722 27.2467 44.2722H67.6239C68.0067 44.2722 68.3225 44.588 68.3225 44.9708V47.7941C68.3225 48.1769 68.0067 48.4927 67.6239 48.4927Z" fill="white"/>
<path d="M45.3154 66.571V26.1939C45.3154 25.8111 45.6312 25.4952 46.0141 25.4952H48.8373C49.2201 25.4952 49.5359 25.8111 49.5359 26.1939V66.571C49.5359 66.9538 49.2201 67.2697 48.8373 67.2697H46.0141C45.6312 67.2697 45.3154 66.9538 45.3154 66.571Z" fill="white"/>
<path d="M33.0847 46.3776C33.0847 50.2586 34.6264 53.9805 37.3706 56.7247C40.1148 59.469 43.8368 61.0106 47.7177 61.0106C51.5986 61.0106 55.3206 59.469 58.0648 56.7247C60.809 53.9805 62.3507 50.2586 62.3507 46.3776C62.3507 42.4967 60.809 38.7748 58.0648 36.0305C55.3206 33.2863 51.5986 31.7446 47.7177 31.7446C43.8368 31.7446 40.1148 33.2863 37.3706 36.0305C34.6264 38.7748 33.0847 42.4967 33.0847 46.3776Z" fill="#4DA6D8"/>
<path d="M40.3867 46.3777C40.3867 48.322 41.1591 50.1866 42.5339 51.5614C43.9087 52.9362 45.7733 53.7086 47.7176 53.7086C49.6618 53.7086 51.5265 52.9362 52.9013 51.5614C54.2761 50.1866 55.0484 48.322 55.0484 46.3777C55.0484 44.4335 54.2761 42.5688 52.9013 41.194C51.5265 39.8192 49.6618 39.0469 47.7176 39.0469C45.7733 39.0469 43.9087 39.8192 42.5339 41.194C41.1591 42.5688 40.3867 44.4335 40.3867 46.3777Z" fill="#9ACDE0"/>
<path d="M43.813 46.3777C43.813 47.4133 44.2244 48.4065 44.9566 49.1387C45.6889 49.871 46.6821 50.2824 47.7177 50.2824C48.7533 50.2824 49.7464 49.871 50.4787 49.1387C51.211 48.4065 51.6224 47.4133 51.6224 46.3777C51.6224 45.8649 51.5214 45.3572 51.3251 44.8835C51.1289 44.4097 50.8413 43.9793 50.4787 43.6167C50.1161 43.2541 49.6857 42.9665 49.2119 42.7702C48.7382 42.574 48.2304 42.473 47.7177 42.473C47.2049 42.473 46.6972 42.574 46.2234 42.7702C45.7497 42.9665 45.3192 43.2541 44.9566 43.6167C44.5941 43.9793 44.3064 44.4097 44.1102 44.8835C43.914 45.3572 43.813 45.8649 43.813 46.3777Z" fill="white"/>
<path d="M52.6081 37.8218C53.1249 36.4437 52.876 35.0656 52.053 34.7593C51.2395 34.4531 50.1485 35.3335 49.6317 36.7117L46.4065 45.3728L49.3829 46.483L52.6081 37.8218Z" fill="#BA5955"/>
<path d="M46.4066 45.3728L42.8369 54.9431C42.3201 56.3212 42.5689 57.6994 43.392 58.0056C44.2054 58.3119 45.2964 57.4314 45.8132 56.0533L49.383 46.483L46.4066 45.3728Z" fill="white"/>
<path d="M83.4915 76.1892H11.3696C8.47935 76.1892 6.11548 73.8349 6.11548 70.9447V21.8203C6.11548 18.93 8.46978 16.5662 11.3696 16.5662H83.4915C86.3817 16.5662 88.736 18.9205 88.736 21.8203V70.9447C88.7456 73.8349 86.3913 76.1892 83.4915 76.1892ZM11.3696 19.1597C9.90532 19.1597 8.7186 20.3464 8.7186 21.8107V70.9351C8.7186 72.3994 9.90532 73.5861 11.3696 73.5861H83.4915C84.9557 73.5861 86.1424 72.3994 86.1424 70.9351V21.8203C86.1424 20.356 84.9557 19.1693 83.4915 19.1693H11.3696V19.1597Z" fill="#3E3A39"/>
</svg>
