<svg width="90" height="90" viewBox="0 0 90 90" fill="none" xmlns="http://www.w3.org/2000/svg">
<path d="M78.75 45C78.75 26.3604 63.6396 11.25 45 11.25C26.3604 11.25 11.25 26.3604 11.25 45C11.25 63.6396 26.3604 78.75 45 78.75C63.6396 78.75 78.75 63.6396 78.75 45Z" fill="#2CBA35" fill-opacity="0.35"/>
<path d="M30 43.125L41.25 54.375L60 35.625" stroke="#282828" stroke-width="2" stroke-linecap="round" stroke-linejoin="round"/>
<path d="M78.75 45C78.75 26.3604 63.6396 11.25 45 11.25C26.3604 11.25 11.25 26.3604 11.25 45C11.25 63.6396 26.3604 78.75 45 78.75C63.6396 78.75 78.75 63.6396 78.75 45Z" stroke="#282828" stroke-width="2" stroke-linecap="round" stroke-linejoin="round"/>
</svg>
