<svg width="90" height="90" viewBox="0 0 90 90" fill="none" xmlns="http://www.w3.org/2000/svg">
<path d="M45 78.75C60.533 78.75 73.125 66.158 73.125 50.625C73.125 35.092 60.533 22.5 45 22.5C29.467 22.5 16.875 35.092 16.875 50.625C16.875 66.158 29.467 78.75 45 78.75Z" fill="#2CBA35" fill-opacity="0.35"/>
<path d="M45 37.5V52.5L50.25 58.3875" stroke="black" stroke-width="2" stroke-linecap="round" stroke-linejoin="round"/>
<path d="M64.875 30.75L70.5 25.125M25.125 30.75L19.5 25.125M45 22.5V11.25M45 22.5C50.5626 22.5 56.0003 24.1495 60.6254 27.2399C65.2505 30.3303 68.8554 34.7229 70.9841 39.862C73.1128 45.0012 73.6698 50.6562 72.5846 56.1119C71.4994 61.5676 68.8207 66.579 64.8874 70.5124C60.954 74.4457 55.9426 77.1244 50.4869 78.2096C45.0312 79.2948 39.3762 78.7378 34.237 76.6091C29.0979 74.4804 24.7053 70.8755 21.6149 66.2504C18.5245 61.6253 16.875 56.1876 16.875 50.625C16.875 43.1658 19.8382 36.0121 25.1126 30.7376C30.3871 25.4632 37.5408 22.5 45 22.5ZM33.75 11.25H56.25" stroke="black" stroke-width="2" stroke-linecap="round" stroke-linejoin="round"/>
</svg>
